<?xml version="1.0" encoding="UTF-8" standalone="no"?>
<!DOCTYPE svg PUBLIC "-//W3C//DTD SVG 1.1//EN"
 "http://www.w3.org/Graphics/SVG/1.1/DTD/svg11.dtd">
<!-- Generated by graphviz version 5.0.0 (20220707.1540)
 -->
<!-- Title: dependencies Pages: 1 -->
<svg width="2605pt" height="247pt"
 viewBox="0.00 0.00 2605.00 246.80" xmlns="http://www.w3.org/2000/svg" xmlns:xlink="http://www.w3.org/1999/xlink">
<g id="graph0" class="graph" transform="scale(1 1) rotate(0) translate(4 242.8)">
<title>dependencies</title>
<polygon fill="white" stroke="transparent" points="-4,4 -4,-242.8 2601,-242.8 2601,4 -4,4"/>
<text text-anchor="middle" x="1298.5" y="-8.2" font-family="sans-serif" font-size="14.00">dependencies</text>
<g id="clust1" class="cluster">
<title>cluster_AppModule</title>
<polygon fill="none" stroke="black" stroke-dasharray="1,5" points="8,-32.8 8,-230.8 2589,-230.8 2589,-32.8 8,-32.8"/>
</g>
<g id="clust17" class="cluster">
<title>cluster_AppModule_imports</title>
<polygon fill="none" stroke="black" points="2437,-40.8 2437,-92.8 2581,-92.8 2581,-40.8 2437,-40.8"/>
</g>
<g id="clust19" class="cluster">
<title>cluster_AppModule_bootstrap</title>
<polygon fill="none" stroke="black" points="1254,-170.8 1254,-222.8 1378,-222.8 1378,-170.8 1254,-170.8"/>
</g>
<g id="clust2" class="cluster">
<title>cluster_AppModule_declarations</title>
<polygon fill="none" stroke="black" points="16,-40.8 16,-92.8 2429,-92.8 2429,-40.8 16,-40.8"/>
</g>
<!-- AngularDraggableDirective -->
<g id="node1" class="node">
<title>AngularDraggableDirective</title>
<polygon fill="#ffffb3" stroke="black" points="2421.26,-84.8 2248.74,-84.8 2248.74,-48.8 2421.26,-48.8 2421.26,-84.8"/>
<text text-anchor="middle" x="2335" y="-62.6" font-family="Times,serif" font-size="14.00">AngularDraggableDirective</text>
</g>
<!-- AppModule -->
<g id="node15" class="node">
<title>AppModule</title>
<polygon fill="#8dd3c7" stroke="black" points="1357.66,-149.8 1354.66,-153.8 1333.66,-153.8 1330.66,-149.8 1274.34,-149.8 1274.34,-113.8 1357.66,-113.8 1357.66,-149.8"/>
<text text-anchor="middle" x="1316" y="-127.6" font-family="Times,serif" font-size="14.00">AppModule</text>
</g>
<!-- AngularDraggableDirective&#45;&gt;AppModule -->
<g id="edge1" class="edge">
<title>AngularDraggableDirective&#45;&gt;AppModule</title>
<path fill="none" stroke="black" d="M2335,-85.09C2335,-107.01 2335,-140.8 2335,-140.8 2335,-140.8 1367.85,-140.8 1367.85,-140.8"/>
<polygon fill="black" stroke="black" points="1367.85,-137.3 1357.85,-140.8 1367.85,-144.3 1367.85,-137.3"/>
</g>
<!-- AppAboutComponent -->
<g id="node2" class="node">
<title>AppAboutComponent</title>
<polygon fill="#ffffb3" stroke="black" points="2231.44,-84.8 2090.56,-84.8 2090.56,-48.8 2231.44,-48.8 2231.44,-84.8"/>
<text text-anchor="middle" x="2161" y="-62.6" font-family="Times,serif" font-size="14.00">AppAboutComponent</text>
</g>
<!-- AppAboutComponent&#45;&gt;AppModule -->
<g id="edge2" class="edge">
<title>AppAboutComponent&#45;&gt;AppModule</title>
<path fill="none" stroke="black" d="M2161,-84.83C2161,-105.57 2161,-136.8 2161,-136.8 2161,-136.8 1367.9,-136.8 1367.9,-136.8"/>
<polygon fill="black" stroke="black" points="1367.9,-133.3 1357.9,-136.8 1367.9,-140.3 1367.9,-133.3"/>
</g>
<!-- AppComponent -->
<g id="node3" class="node">
<title>AppComponent</title>
<polygon fill="#ffffb3" stroke="black" points="2072.94,-84.8 1967.06,-84.8 1967.06,-48.8 2072.94,-48.8 2072.94,-84.8"/>
<text text-anchor="middle" x="2020" y="-62.6" font-family="Times,serif" font-size="14.00">AppComponent</text>
</g>
<!-- AppComponent&#45;&gt;AppModule -->
<g id="edge3" class="edge">
<title>AppComponent&#45;&gt;AppModule</title>
<path fill="none" stroke="black" d="M2020,-84.91C2020,-104.14 2020,-131.8 2020,-131.8 2020,-131.8 1367.67,-131.8 1367.67,-131.8"/>
<polygon fill="black" stroke="black" points="1367.67,-128.3 1357.67,-131.8 1367.67,-135.3 1367.67,-128.3"/>
</g>
<!-- AppDeckComponent -->
<g id="node4" class="node">
<title>AppDeckComponent</title>
<polygon fill="#ffffb3" stroke="black" points="1949.48,-84.8 1814.52,-84.8 1814.52,-48.8 1949.48,-48.8 1949.48,-84.8"/>
<text text-anchor="middle" x="1882" y="-62.6" font-family="Times,serif" font-size="14.00">AppDeckComponent</text>
</g>
<!-- AppDeckComponent&#45;&gt;AppModule -->
<g id="edge4" class="edge">
<title>AppDeckComponent&#45;&gt;AppModule</title>
<path fill="none" stroke="black" d="M1882,-85.1C1882,-103.07 1882,-127.8 1882,-127.8 1882,-127.8 1368.08,-127.8 1368.08,-127.8"/>
<polygon fill="black" stroke="black" points="1368.08,-124.3 1358.08,-127.8 1368.08,-131.3 1368.08,-124.3"/>
</g>
<!-- AppEffectsCreatorComponent -->
<g id="node5" class="node">
<title>AppEffectsCreatorComponent</title>
<polygon fill="#ffffb3" stroke="black" points="1796.56,-84.8 1609.44,-84.8 1609.44,-48.8 1796.56,-48.8 1796.56,-84.8"/>
<text text-anchor="middle" x="1703" y="-62.6" font-family="Times,serif" font-size="14.00">AppEffectsCreatorComponent</text>
</g>
<!-- AppEffectsCreatorComponent&#45;&gt;AppModule -->
<g id="edge5" class="edge">
<title>AppEffectsCreatorComponent&#45;&gt;AppModule</title>
<path fill="none" stroke="black" d="M1703,-84.83C1703,-101.2 1703,-122.8 1703,-122.8 1703,-122.8 1367.78,-122.8 1367.78,-122.8"/>
<polygon fill="black" stroke="black" points="1367.78,-119.3 1357.78,-122.8 1367.78,-126.3 1367.78,-119.3"/>
</g>
<!-- AppEffectsSelectorComponent -->
<g id="node6" class="node">
<title>AppEffectsSelectorComponent</title>
<polygon fill="#ffffb3" stroke="black" points="1591.45,-84.8 1400.55,-84.8 1400.55,-48.8 1591.45,-48.8 1591.45,-84.8"/>
<text text-anchor="middle" x="1496" y="-62.6" font-family="Times,serif" font-size="14.00">AppEffectsSelectorComponent</text>
</g>
<!-- AppEffectsSelectorComponent&#45;&gt;AppModule -->
<g id="edge6" class="edge">
<title>AppEffectsSelectorComponent&#45;&gt;AppModule</title>
<path fill="none" stroke="black" d="M1496,-84.99C1496,-99.98 1496,-118.8 1496,-118.8 1496,-118.8 1367.75,-118.8 1367.75,-118.8"/>
<polygon fill="black" stroke="black" points="1367.75,-115.3 1357.75,-118.8 1367.75,-122.3 1367.75,-115.3"/>
</g>
<!-- AppHelpComponent -->
<g id="node7" class="node">
<title>AppHelpComponent</title>
<polygon fill="#ffffb3" stroke="black" points="1382.16,-84.8 1249.84,-84.8 1249.84,-48.8 1382.16,-48.8 1382.16,-84.8"/>
<text text-anchor="middle" x="1316" y="-62.6" font-family="Times,serif" font-size="14.00">AppHelpComponent</text>
</g>
<!-- AppHelpComponent&#45;&gt;AppModule -->
<g id="edge7" class="edge">
<title>AppHelpComponent&#45;&gt;AppModule</title>
<path fill="none" stroke="black" d="M1316,-84.91C1316,-84.91 1316,-103.79 1316,-103.79"/>
<polygon fill="black" stroke="black" points="1312.5,-103.79 1316,-113.79 1319.5,-103.79 1312.5,-103.79"/>
</g>
<!-- AppLayoutComponent -->
<g id="node8" class="node">
<title>AppLayoutComponent</title>
<polygon fill="#ffffb3" stroke="black" points="1231.6,-84.8 1086.4,-84.8 1086.4,-48.8 1231.6,-48.8 1231.6,-84.8"/>
<text text-anchor="middle" x="1159" y="-62.6" font-family="Times,serif" font-size="14.00">AppLayoutComponent</text>
</g>
<!-- AppLayoutComponent&#45;&gt;AppModule -->
<g id="edge8" class="edge">
<title>AppLayoutComponent&#45;&gt;AppModule</title>
<path fill="none" stroke="black" d="M1159,-84.99C1159,-99.98 1159,-118.8 1159,-118.8 1159,-118.8 1263.93,-118.8 1263.93,-118.8"/>
<polygon fill="black" stroke="black" points="1263.93,-122.3 1273.93,-118.8 1263.93,-115.3 1263.93,-122.3"/>
</g>
<!-- AppMusicListComponent -->
<g id="node9" class="node">
<title>AppMusicListComponent</title>
<polygon fill="#ffffb3" stroke="black" points="1068.22,-84.8 905.78,-84.8 905.78,-48.8 1068.22,-48.8 1068.22,-84.8"/>
<text text-anchor="middle" x="987" y="-62.6" font-family="Times,serif" font-size="14.00">AppMusicListComponent</text>
</g>
<!-- AppMusicListComponent&#45;&gt;AppModule -->
<g id="edge9" class="edge">
<title>AppMusicListComponent&#45;&gt;AppModule</title>
<path fill="none" stroke="black" d="M987,-84.83C987,-101.2 987,-122.8 987,-122.8 987,-122.8 1264.33,-122.8 1264.33,-122.8"/>
<polygon fill="black" stroke="black" points="1264.33,-126.3 1274.33,-122.8 1264.33,-119.3 1264.33,-126.3"/>
</g>
<!-- AppSettingsComponent -->
<g id="node10" class="node">
<title>AppSettingsComponent</title>
<polygon fill="#ffffb3" stroke="black" points="888.06,-84.8 737.94,-84.8 737.94,-48.8 888.06,-48.8 888.06,-84.8"/>
<text text-anchor="middle" x="813" y="-62.6" font-family="Times,serif" font-size="14.00">AppSettingsComponent</text>
</g>
<!-- AppSettingsComponent&#45;&gt;AppModule -->
<g id="edge10" class="edge">
<title>AppSettingsComponent&#45;&gt;AppModule</title>
<path fill="none" stroke="black" d="M813,-85.1C813,-103.07 813,-127.8 813,-127.8 813,-127.8 1263.98,-127.8 1263.98,-127.8"/>
<polygon fill="black" stroke="black" points="1263.98,-131.3 1273.98,-127.8 1263.98,-124.3 1263.98,-131.3"/>
</g>
<!-- AppTabsComponent -->
<g id="node11" class="node">
<title>AppTabsComponent</title>
<polygon fill="#ffffb3" stroke="black" points="719.16,-84.8 586.84,-84.8 586.84,-48.8 719.16,-48.8 719.16,-84.8"/>
<text text-anchor="middle" x="653" y="-62.6" font-family="Times,serif" font-size="14.00">AppTabsComponent</text>
</g>
<!-- AppTabsComponent&#45;&gt;AppModule -->
<g id="edge11" class="edge">
<title>AppTabsComponent&#45;&gt;AppModule</title>
<path fill="none" stroke="black" d="M653,-84.91C653,-104.14 653,-131.8 653,-131.8 653,-131.8 1264.28,-131.8 1264.28,-131.8"/>
<polygon fill="black" stroke="black" points="1264.28,-135.3 1274.28,-131.8 1264.28,-128.3 1264.28,-135.3"/>
</g>
<!-- AppVolumeComponent -->
<g id="node12" class="node">
<title>AppVolumeComponent</title>
<polygon fill="#ffffb3" stroke="black" points="568.05,-84.8 417.95,-84.8 417.95,-48.8 568.05,-48.8 568.05,-84.8"/>
<text text-anchor="middle" x="493" y="-62.6" font-family="Times,serif" font-size="14.00">AppVolumeComponent</text>
</g>
<!-- AppVolumeComponent&#45;&gt;AppModule -->
<g id="edge12" class="edge">
<title>AppVolumeComponent&#45;&gt;AppModule</title>
<path fill="none" stroke="black" d="M493,-84.83C493,-105.57 493,-136.8 493,-136.8 493,-136.8 1264.06,-136.8 1264.06,-136.8"/>
<polygon fill="black" stroke="black" points="1264.06,-140.3 1274.06,-136.8 1264.06,-133.3 1264.06,-140.3"/>
</g>
<!-- RouletteControllerComponent -->
<g id="node13" class="node">
<title>RouletteControllerComponent</title>
<polygon fill="#ffffb3" stroke="black" points="400.31,-84.8 213.69,-84.8 213.69,-48.8 400.31,-48.8 400.31,-84.8"/>
<text text-anchor="middle" x="307" y="-62.6" font-family="Times,serif" font-size="14.00">RouletteControllerComponent</text>
</g>
<!-- RouletteControllerComponent&#45;&gt;AppModule -->
<g id="edge13" class="edge">
<title>RouletteControllerComponent&#45;&gt;AppModule</title>
<path fill="none" stroke="black" d="M307,-85.09C307,-107.01 307,-140.8 307,-140.8 307,-140.8 1264.25,-140.8 1264.25,-140.8"/>
<polygon fill="black" stroke="black" points="1264.25,-144.3 1274.25,-140.8 1264.25,-137.3 1264.25,-144.3"/>
</g>
<!-- SliderControllerComponent -->
<g id="node14" class="node">
<title>SliderControllerComponent</title>
<polygon fill="#ffffb3" stroke="black" points="196.32,-84.8 23.68,-84.8 23.68,-48.8 196.32,-48.8 196.32,-84.8"/>
<text text-anchor="middle" x="110" y="-62.6" font-family="Times,serif" font-size="14.00">SliderControllerComponent</text>
</g>
<!-- SliderControllerComponent&#45;&gt;AppModule -->
<g id="edge14" class="edge">
<title>SliderControllerComponent&#45;&gt;AppModule</title>
<path fill="none" stroke="black" d="M110,-85.12C110,-108.46 110,-145.8 110,-145.8 110,-145.8 1264.14,-145.8 1264.14,-145.8"/>
<polygon fill="black" stroke="black" points="1264.14,-149.3 1274.14,-145.8 1264.14,-142.3 1264.14,-149.3"/>
</g>
<!-- AppComponent  -->
<g id="node17" class="node">
<title>AppComponent </title>
<polygon fill="#80b1d3" stroke="black" points="1370.44,-214.8 1261.56,-214.8 1261.56,-178.8 1370.44,-178.8 1370.44,-214.8"/>
<text text-anchor="middle" x="1316" y="-192.6" font-family="Times,serif" font-size="14.00">AppComponent </text>
</g>
<!-- AppModule&#45;&gt;AppComponent  -->
<g id="edge16" class="edge">
<title>AppModule&#45;&gt;AppComponent </title>
<path fill="none" stroke="black" stroke-dasharray="1,5" d="M1316,-149.91C1316,-149.91 1316,-168.79 1316,-168.79"/>
<polygon fill="black" stroke="black" points="1312.5,-168.79 1316,-178.79 1319.5,-168.79 1312.5,-168.79"/>
</g>
<!-- AppRoutingModule -->
<g id="node16" class="node">
<title>AppRoutingModule</title>
<polygon fill="#8dd3c7" stroke="black" points="2573.28,-84.8 2570.28,-88.8 2549.28,-88.8 2546.28,-84.8 2444.72,-84.8 2444.72,-48.8 2573.28,-48.8 2573.28,-84.8"/>
<text text-anchor="middle" x="2509" y="-62.6" font-family="Times,serif" font-size="14.00">AppRoutingModule</text>
</g>
<!-- AppRoutingModule&#45;&gt;AppModule -->
<g id="edge15" class="edge">
<title>AppRoutingModule&#45;&gt;AppModule</title>
<path fill="none" stroke="black" d="M2509,-85.12C2509,-108.46 2509,-145.8 2509,-145.8 2509,-145.8 1367.76,-145.8 1367.76,-145.8"/>
<polygon fill="black" stroke="black" points="1367.76,-142.3 1357.76,-145.8 1367.76,-149.3 1367.76,-142.3"/>
</g>
</g>
</svg>
