<?xml version="1.0" encoding="UTF-8" standalone="no"?>
<!DOCTYPE svg PUBLIC "-//W3C//DTD SVG 1.1//EN"
 "http://www.w3.org/Graphics/SVG/1.1/DTD/svg11.dtd">
<!-- Generated by graphviz version 5.0.0 (20220707.1540)
 -->
<!-- Title: dependencies Pages: 1 -->
<svg width="2605pt" height="247pt"
 viewBox="0.00 0.00 2605.00 246.80" xmlns="http://www.w3.org/2000/svg" xmlns:xlink="http://www.w3.org/1999/xlink">
<g id="graph0" class="graph" transform="scale(1 1) rotate(0) translate(4 242.8)">
<title>dependencies</title>
<polygon fill="white" stroke="transparent" points="-4,4 -4,-242.8 2601,-242.8 2601,4 -4,4"/>
<text text-anchor="middle" x="1298.5" y="-8.2" font-family="sans-serif" font-size="14.00">dependencies</text>
<g id="clust1" class="cluster">
<title>cluster_AppModule</title>
<polygon fill="none" stroke="black" stroke-dasharray="1,5" points="8,-32.8 8,-230.8 2589,-230.8 2589,-32.8 8,-32.8"/>
</g>
<g id="clust2" class="cluster">
<title>cluster_AppModule_declarations</title>
<polygon fill="none" stroke="black" points="168,-40.8 168,-92.8 2581,-92.8 2581,-40.8 168,-40.8"/>
</g>
<g id="clust17" class="cluster">
<title>cluster_AppModule_imports</title>
<polygon fill="none" stroke="black" points="16,-40.8 16,-92.8 160,-92.8 160,-40.8 16,-40.8"/>
</g>
<g id="clust19" class="cluster">
<title>cluster_AppModule_bootstrap</title>
<polygon fill="none" stroke="black" points="1249,-170.8 1249,-222.8 1373,-222.8 1373,-170.8 1249,-170.8"/>
</g>
<!-- AngularDraggableDirective -->
<g id="node1" class="node">
<title>AngularDraggableDirective</title>
<polygon fill="#ffffb3" stroke="black" points="2573.26,-84.8 2400.74,-84.8 2400.74,-48.8 2573.26,-48.8 2573.26,-84.8"/>
<text text-anchor="middle" x="2487" y="-62.6" font-family="Times,serif" font-size="14.00">AngularDraggableDirective</text>
</g>
<!-- AppModule -->
<g id="node15" class="node">
<title>AppModule</title>
<polygon fill="#8dd3c7" stroke="black" points="1352.66,-149.8 1349.66,-153.8 1328.66,-153.8 1325.66,-149.8 1269.34,-149.8 1269.34,-113.8 1352.66,-113.8 1352.66,-149.8"/>
<text text-anchor="middle" x="1311" y="-127.6" font-family="Times,serif" font-size="14.00">AppModule</text>
</g>
<!-- AngularDraggableDirective&#45;&gt;AppModule -->
<g id="edge1" class="edge">
<title>AngularDraggableDirective&#45;&gt;AppModule</title>
<path fill="none" stroke="black" d="M2487,-85.12C2487,-108.46 2487,-145.8 2487,-145.8 2487,-145.8 1362.85,-145.8 1362.85,-145.8"/>
<polygon fill="black" stroke="black" points="1362.85,-142.3 1352.85,-145.8 1362.85,-149.3 1362.85,-142.3"/>
</g>
<!-- AppAboutComponent -->
<g id="node2" class="node">
<title>AppAboutComponent</title>
<polygon fill="#ffffb3" stroke="black" points="2383.44,-84.8 2242.56,-84.8 2242.56,-48.8 2383.44,-48.8 2383.44,-84.8"/>
<text text-anchor="middle" x="2313" y="-62.6" font-family="Times,serif" font-size="14.00">AppAboutComponent</text>
</g>
<!-- AppAboutComponent&#45;&gt;AppModule -->
<g id="edge2" class="edge">
<title>AppAboutComponent&#45;&gt;AppModule</title>
<path fill="none" stroke="black" d="M2313,-85.09C2313,-107.01 2313,-140.8 2313,-140.8 2313,-140.8 1362.78,-140.8 1362.78,-140.8"/>
<polygon fill="black" stroke="black" points="1362.78,-137.3 1352.78,-140.8 1362.78,-144.3 1362.78,-137.3"/>
</g>
<!-- AppComponent -->
<g id="node3" class="node">
<title>AppComponent</title>
<polygon fill="#ffffb3" stroke="black" points="2224.94,-84.8 2119.06,-84.8 2119.06,-48.8 2224.94,-48.8 2224.94,-84.8"/>
<text text-anchor="middle" x="2172" y="-62.6" font-family="Times,serif" font-size="14.00">AppComponent</text>
</g>
<!-- AppComponent&#45;&gt;AppModule -->
<g id="edge3" class="edge">
<title>AppComponent&#45;&gt;AppModule</title>
<path fill="none" stroke="black" d="M2172,-84.83C2172,-105.57 2172,-136.8 2172,-136.8 2172,-136.8 1362.82,-136.8 1362.82,-136.8"/>
<polygon fill="black" stroke="black" points="1362.82,-133.3 1352.82,-136.8 1362.82,-140.3 1362.82,-133.3"/>
</g>
<!-- AppDeckComponent -->
<g id="node4" class="node">
<title>AppDeckComponent</title>
<polygon fill="#ffffb3" stroke="black" points="2101.48,-84.8 1966.52,-84.8 1966.52,-48.8 2101.48,-48.8 2101.48,-84.8"/>
<text text-anchor="middle" x="2034" y="-62.6" font-family="Times,serif" font-size="14.00">AppDeckComponent</text>
</g>
<!-- AppDeckComponent&#45;&gt;AppModule -->
<g id="edge4" class="edge">
<title>AppDeckComponent&#45;&gt;AppModule</title>
<path fill="none" stroke="black" d="M2034,-84.91C2034,-104.14 2034,-131.8 2034,-131.8 2034,-131.8 1362.73,-131.8 1362.73,-131.8"/>
<polygon fill="black" stroke="black" points="1362.73,-128.3 1352.73,-131.8 1362.73,-135.3 1362.73,-128.3"/>
</g>
<!-- AppEffectsCreatorComponent -->
<g id="node5" class="node">
<title>AppEffectsCreatorComponent</title>
<polygon fill="#ffffb3" stroke="black" points="1948.56,-84.8 1761.44,-84.8 1761.44,-48.8 1948.56,-48.8 1948.56,-84.8"/>
<text text-anchor="middle" x="1855" y="-62.6" font-family="Times,serif" font-size="14.00">AppEffectsCreatorComponent</text>
</g>
<!-- AppEffectsCreatorComponent&#45;&gt;AppModule -->
<g id="edge5" class="edge">
<title>AppEffectsCreatorComponent&#45;&gt;AppModule</title>
<path fill="none" stroke="black" d="M1855,-85.1C1855,-103.07 1855,-127.8 1855,-127.8 1855,-127.8 1362.78,-127.8 1362.78,-127.8"/>
<polygon fill="black" stroke="black" points="1362.78,-124.3 1352.78,-127.8 1362.78,-131.3 1362.78,-124.3"/>
</g>
<!-- AppEffectsSelectorComponent -->
<g id="node6" class="node">
<title>AppEffectsSelectorComponent</title>
<polygon fill="#ffffb3" stroke="black" points="1743.45,-84.8 1552.55,-84.8 1552.55,-48.8 1743.45,-48.8 1743.45,-84.8"/>
<text text-anchor="middle" x="1648" y="-62.6" font-family="Times,serif" font-size="14.00">AppEffectsSelectorComponent</text>
</g>
<!-- AppEffectsSelectorComponent&#45;&gt;AppModule -->
<g id="edge6" class="edge">
<title>AppEffectsSelectorComponent&#45;&gt;AppModule</title>
<path fill="none" stroke="black" d="M1648,-84.83C1648,-101.2 1648,-122.8 1648,-122.8 1648,-122.8 1363,-122.8 1363,-122.8"/>
<polygon fill="black" stroke="black" points="1363,-119.3 1353,-122.8 1363,-126.3 1363,-119.3"/>
</g>
<!-- AppHelpComponent -->
<g id="node7" class="node">
<title>AppHelpComponent</title>
<polygon fill="#ffffb3" stroke="black" points="1534.16,-84.8 1401.84,-84.8 1401.84,-48.8 1534.16,-48.8 1534.16,-84.8"/>
<text text-anchor="middle" x="1468" y="-62.6" font-family="Times,serif" font-size="14.00">AppHelpComponent</text>
</g>
<!-- AppHelpComponent&#45;&gt;AppModule -->
<g id="edge7" class="edge">
<title>AppHelpComponent&#45;&gt;AppModule</title>
<path fill="none" stroke="black" d="M1468,-84.99C1468,-99.98 1468,-118.8 1468,-118.8 1468,-118.8 1363.07,-118.8 1363.07,-118.8"/>
<polygon fill="black" stroke="black" points="1363.07,-115.3 1353.07,-118.8 1363.07,-122.3 1363.07,-115.3"/>
</g>
<!-- AppLayoutComponent -->
<g id="node8" class="node">
<title>AppLayoutComponent</title>
<polygon fill="#ffffb3" stroke="black" points="1383.6,-84.8 1238.4,-84.8 1238.4,-48.8 1383.6,-48.8 1383.6,-84.8"/>
<text text-anchor="middle" x="1311" y="-62.6" font-family="Times,serif" font-size="14.00">AppLayoutComponent</text>
</g>
<!-- AppLayoutComponent&#45;&gt;AppModule -->
<g id="edge8" class="edge">
<title>AppLayoutComponent&#45;&gt;AppModule</title>
<path fill="none" stroke="black" d="M1311,-84.91C1311,-84.91 1311,-103.79 1311,-103.79"/>
<polygon fill="black" stroke="black" points="1307.5,-103.79 1311,-113.79 1314.5,-103.79 1307.5,-103.79"/>
</g>
<!-- AppMusicListComponent -->
<g id="node9" class="node">
<title>AppMusicListComponent</title>
<polygon fill="#ffffb3" stroke="black" points="1220.22,-84.8 1057.78,-84.8 1057.78,-48.8 1220.22,-48.8 1220.22,-84.8"/>
<text text-anchor="middle" x="1139" y="-62.6" font-family="Times,serif" font-size="14.00">AppMusicListComponent</text>
</g>
<!-- AppMusicListComponent&#45;&gt;AppModule -->
<g id="edge9" class="edge">
<title>AppMusicListComponent&#45;&gt;AppModule</title>
<path fill="none" stroke="black" d="M1139,-84.99C1139,-99.98 1139,-118.8 1139,-118.8 1139,-118.8 1258.92,-118.8 1258.92,-118.8"/>
<polygon fill="black" stroke="black" points="1258.92,-122.3 1268.92,-118.8 1258.92,-115.3 1258.92,-122.3"/>
</g>
<!-- AppSettingsComponent -->
<g id="node10" class="node">
<title>AppSettingsComponent</title>
<polygon fill="#ffffb3" stroke="black" points="1040.06,-84.8 889.94,-84.8 889.94,-48.8 1040.06,-48.8 1040.06,-84.8"/>
<text text-anchor="middle" x="965" y="-62.6" font-family="Times,serif" font-size="14.00">AppSettingsComponent</text>
</g>
<!-- AppSettingsComponent&#45;&gt;AppModule -->
<g id="edge10" class="edge">
<title>AppSettingsComponent&#45;&gt;AppModule</title>
<path fill="none" stroke="black" d="M965,-84.83C965,-101.2 965,-122.8 965,-122.8 965,-122.8 1259.26,-122.8 1259.26,-122.8"/>
<polygon fill="black" stroke="black" points="1259.26,-126.3 1269.26,-122.8 1259.26,-119.3 1259.26,-126.3"/>
</g>
<!-- AppTabsComponent -->
<g id="node11" class="node">
<title>AppTabsComponent</title>
<polygon fill="#ffffb3" stroke="black" points="871.16,-84.8 738.84,-84.8 738.84,-48.8 871.16,-48.8 871.16,-84.8"/>
<text text-anchor="middle" x="805" y="-62.6" font-family="Times,serif" font-size="14.00">AppTabsComponent</text>
</g>
<!-- AppTabsComponent&#45;&gt;AppModule -->
<g id="edge11" class="edge">
<title>AppTabsComponent&#45;&gt;AppModule</title>
<path fill="none" stroke="black" d="M805,-85.1C805,-103.07 805,-127.8 805,-127.8 805,-127.8 1259.16,-127.8 1259.16,-127.8"/>
<polygon fill="black" stroke="black" points="1259.16,-131.3 1269.16,-127.8 1259.16,-124.3 1259.16,-131.3"/>
</g>
<!-- AppVolumeComponent -->
<g id="node12" class="node">
<title>AppVolumeComponent</title>
<polygon fill="#ffffb3" stroke="black" points="720.05,-84.8 569.95,-84.8 569.95,-48.8 720.05,-48.8 720.05,-84.8"/>
<text text-anchor="middle" x="645" y="-62.6" font-family="Times,serif" font-size="14.00">AppVolumeComponent</text>
</g>
<!-- AppVolumeComponent&#45;&gt;AppModule -->
<g id="edge12" class="edge">
<title>AppVolumeComponent&#45;&gt;AppModule</title>
<path fill="none" stroke="black" d="M645,-84.91C645,-104.14 645,-131.8 645,-131.8 645,-131.8 1259.09,-131.8 1259.09,-131.8"/>
<polygon fill="black" stroke="black" points="1259.09,-135.3 1269.09,-131.8 1259.09,-128.3 1259.09,-135.3"/>
</g>
<!-- RouletteControllerComponent -->
<g id="node13" class="node">
<title>RouletteControllerComponent</title>
<polygon fill="#ffffb3" stroke="black" points="552.31,-84.8 365.69,-84.8 365.69,-48.8 552.31,-48.8 552.31,-84.8"/>
<text text-anchor="middle" x="459" y="-62.6" font-family="Times,serif" font-size="14.00">RouletteControllerComponent</text>
</g>
<!-- RouletteControllerComponent&#45;&gt;AppModule -->
<g id="edge13" class="edge">
<title>RouletteControllerComponent&#45;&gt;AppModule</title>
<path fill="none" stroke="black" d="M459,-84.83C459,-105.57 459,-136.8 459,-136.8 459,-136.8 1259.33,-136.8 1259.33,-136.8"/>
<polygon fill="black" stroke="black" points="1259.33,-140.3 1269.33,-136.8 1259.33,-133.3 1259.33,-140.3"/>
</g>
<!-- SliderControllerComponent -->
<g id="node14" class="node">
<title>SliderControllerComponent</title>
<polygon fill="#ffffb3" stroke="black" points="348.32,-84.8 175.68,-84.8 175.68,-48.8 348.32,-48.8 348.32,-84.8"/>
<text text-anchor="middle" x="262" y="-62.6" font-family="Times,serif" font-size="14.00">SliderControllerComponent</text>
</g>
<!-- SliderControllerComponent&#45;&gt;AppModule -->
<g id="edge14" class="edge">
<title>SliderControllerComponent&#45;&gt;AppModule</title>
<path fill="none" stroke="black" d="M262,-85.09C262,-107.01 262,-140.8 262,-140.8 262,-140.8 1259.23,-140.8 1259.23,-140.8"/>
<polygon fill="black" stroke="black" points="1259.23,-144.3 1269.23,-140.8 1259.23,-137.3 1259.23,-144.3"/>
</g>
<!-- AppComponent  -->
<g id="node17" class="node">
<title>AppComponent </title>
<polygon fill="#80b1d3" stroke="black" points="1365.44,-214.8 1256.56,-214.8 1256.56,-178.8 1365.44,-178.8 1365.44,-214.8"/>
<text text-anchor="middle" x="1311" y="-192.6" font-family="Times,serif" font-size="14.00">AppComponent </text>
</g>
<!-- AppModule&#45;&gt;AppComponent  -->
<g id="edge16" class="edge">
<title>AppModule&#45;&gt;AppComponent </title>
<path fill="none" stroke="black" stroke-dasharray="1,5" d="M1311,-149.91C1311,-149.91 1311,-168.79 1311,-168.79"/>
<polygon fill="black" stroke="black" points="1307.5,-168.79 1311,-178.79 1314.5,-168.79 1307.5,-168.79"/>
</g>
<!-- AppRoutingModule -->
<g id="node16" class="node">
<title>AppRoutingModule</title>
<polygon fill="#8dd3c7" stroke="black" points="152.28,-84.8 149.28,-88.8 128.28,-88.8 125.28,-84.8 23.72,-84.8 23.72,-48.8 152.28,-48.8 152.28,-84.8"/>
<text text-anchor="middle" x="88" y="-62.6" font-family="Times,serif" font-size="14.00">AppRoutingModule</text>
</g>
<!-- AppRoutingModule&#45;&gt;AppModule -->
<g id="edge15" class="edge">
<title>AppRoutingModule&#45;&gt;AppModule</title>
<path fill="none" stroke="black" d="M88,-85.12C88,-108.46 88,-145.8 88,-145.8 88,-145.8 1259.26,-145.8 1259.26,-145.8"/>
<polygon fill="black" stroke="black" points="1259.26,-149.3 1269.26,-145.8 1259.26,-142.3 1259.26,-149.3"/>
</g>
</g>
</svg>
